<svg width="444" height="330" viewBox="0 0 444 330" fill="none" xmlns="http://www.w3.org/2000/svg">
<path fill-rule="evenodd" clip-rule="evenodd" d="M208.096 59.7792C212.015 56.1223 217.36 54.4022 222.676 55.087L245.417 58.0165C251.533 58.8044 254.496 65.9245 250.744 70.8185L235.645 90.5109L231.119 125.648C230.272 132.221 224.257 136.863 217.684 136.016L139.988 126.007C128.318 124.504 125.559 108.849 136.011 103.446L192.713 74.1339L208.096 59.7792ZM220.039 68.4377C219.448 68.3616 218.855 68.5527 218.419 68.9591L200.927 85.2813L149.75 111.737C148.879 112.187 149.109 113.492 150.082 113.617L215.577 122.054C216.673 122.195 217.675 121.422 217.816 120.326L222.344 85.1797L232.762 71.5912C233.231 70.9794 232.861 70.0894 232.096 69.9909L220.039 68.4377Z" fill="black"/>
<path fill-rule="evenodd" clip-rule="evenodd" d="M352.79 34.0082C365.986 32.0067 379.038 38.4047 385.538 50.061L426.636 123.76C438.288 142.931 434.932 167.642 418.589 183.01L317.077 282.485C294.533 304.577 262.882 314.729 231.694 309.87L40.8873 280.145C12.4845 275.712 -1.29746 255.544 6.89526 227.99L44.4687 120.873C46.3715 115.448 49.7006 110.636 54.106 106.942L146.777 29.2484C159.443 18.6299 176.418 15.6088 191.702 20.1991C242.816 35.5507 270.255 41.3964 351.318 34.2315L352.79 34.0082ZM340.306 64.8029C344.536 60.9617 341.479 53.89 335.774 54.2161C263.405 58.3537 229.544 50.547 190.076 38.693C186.375 37.5817 172.227 37.1239 163.111 43.6418L79.1399 114.569C74.3706 118.598 75.8512 126.246 81.8484 127.981C128.241 141.4 193.021 150.739 241.462 142.404C249.1 141.09 256.057 137.381 261.953 132.35L327.852 76.1109L340.306 64.8029ZM360.032 78.94L277.243 148.348L289.674 258.024L392.813 155.6C396.205 152.41 396.902 147.282 394.484 143.303L360.032 78.94ZM253.7 275.209L241.044 163.469C181.968 175.197 131.714 168.876 75.9932 148.358L45.1765 231.355C43.4761 237.074 47.2077 242.98 53.1025 243.9L253.7 275.209Z" fill="black"/>
<path d="M241.044 163.469L253.7 275.209L53.1025 243.9C47.2077 242.98 43.4761 237.074 45.1765 231.355L75.9932 148.358C131.714 168.876 181.968 175.197 241.044 163.469Z" fill="black" stroke="black" stroke-width="2" vector-effect="non-scaling-stroke"/>
<path d="M277.243 148.348L360.032 78.94L394.484 143.303C396.902 147.282 396.205 152.41 392.813 155.6L289.674 258.024L277.243 148.348Z" fill="black" stroke="black" stroke-width="2" vector-effect="non-scaling-stroke"/>
</svg>